<svg width="22" height="20" viewBox="0 0 22 20" fill="none" xmlns="http://www.w3.org/2000/svg">
<g clip-path="url(#clip0_2_216)">
<path d="M14.6705 0H6.66841C2.98611 0 0 2.79875 0 6.25V13.75C0 17.2013 2.98611 20 6.66841 20H14.6705C18.3528 20 21.3389 17.2013 21.3389 13.75V6.25C21.3389 2.79875 18.3528 0 14.6705 0ZM19.3384 13.75C19.3384 16.1625 17.2445 18.125 14.6705 18.125H6.66841C4.0944 18.125 2.00052 16.1625 2.00052 13.75V6.25C2.00052 3.8375 4.0944 1.875 6.66841 1.875H14.6705C17.2445 1.875 19.3384 3.8375 19.3384 6.25V13.75Z" fill="white"/>
<path d="M10.6694 5C7.72334 5 5.33472 7.23875 5.33472 10C5.33472 12.7613 7.72334 15 10.6694 15C13.6155 15 16.0042 12.7613 16.0042 10C16.0042 7.23875 13.6155 5 10.6694 5ZM10.6694 13.125C8.83163 13.125 7.33524 11.7225 7.33524 10C7.33524 8.27625 8.83163 6.875 10.6694 6.875C12.5073 6.875 14.0037 8.27625 14.0037 10C14.0037 11.7225 12.5073 13.125 10.6694 13.125Z" fill="white"/>
<path d="M16.4043 5.29148C16.7969 5.29148 17.1152 4.99319 17.1152 4.62523C17.1152 4.25727 16.7969 3.95898 16.4043 3.95898C16.0117 3.95898 15.6935 4.25727 15.6935 4.62523C15.6935 4.99319 16.0117 5.29148 16.4043 5.29148Z" fill="white"/>
</g>
<defs>
<clipPath id="clip0_2_216">
<rect width="21.3389" height="20" fill="white"/>
</clipPath>
</defs>
</svg>
