<svg width="21" height="21" viewBox="0 0 21 21" fill="none" xmlns="http://www.w3.org/2000/svg">
<path d="M20.9856 17.2838C20.9188 16.7792 20.6275 16.3441 20.1864 16.0902L15.0057 13.1073C14.3711 12.7419 13.5662 12.8483 13.0482 13.3662L12.0278 14.3866C11.7563 14.6582 11.3266 14.6822 11.0287 14.4424C10.2242 13.7951 9.43214 13.0827 8.67448 12.325C7.91681 11.5674 7.20442 10.7753 6.55706 9.9708C6.31726 9.67282 6.34126 9.24325 6.61289 8.97166L7.6333 7.95121C8.15117 7.43339 8.25766 6.62851 7.89223 5.99385L4.90934 0.813074C4.65535 0.371947 4.2203 0.0806735 3.71567 0.0139102C3.211 -0.0529891 2.71513 0.115325 2.35519 0.475266L0.817589 2.01291C-0.255568 3.08611 -0.272803 5.04919 0.769058 7.54061C1.77087 9.9362 3.64043 12.5733 6.03325 14.9663C8.42616 17.3591 11.0633 19.2287 13.4589 20.2305C14.6853 20.7433 15.7835 20.9996 16.7108 20.9995C17.6673 20.9995 18.4417 20.7268 18.9866 20.1819L20.5242 18.6443C20.8841 18.2843 21.0523 17.7885 20.9856 17.2838ZM14.6662 13.6968L19.847 16.6797C20.1032 16.8272 20.2724 17.08 20.3111 17.373C20.3437 17.619 20.2798 17.8612 20.1349 18.0564L13.2497 14.1269L13.5293 13.8472C13.8301 13.5465 14.2977 13.4847 14.6662 13.6968ZM3.62641 0.688392C3.91954 0.727171 4.17222 0.896347 4.31971 1.15256L7.30261 6.33334C7.51487 6.70194 7.45301 7.16946 7.15226 7.47017L6.89541 7.72702L2.94431 0.864598C3.10582 0.744995 3.29899 0.680046 3.50037 0.680046C3.54214 0.680046 3.58428 0.682813 3.62641 0.688392ZM18.5055 19.7008C17.6529 20.5534 15.9092 20.5177 13.7214 19.6028C11.4056 18.6343 8.8461 16.8169 6.51438 14.4852C4.18265 12.1534 2.36516 9.59394 1.39673 7.27814C0.481776 5.09032 0.446082 3.34659 1.29867 2.49395L2.44014 1.35244L6.39718 8.22525L6.1318 8.49063C5.61407 9.0084 5.56899 9.82807 6.02699 10.3974C6.68959 11.2208 7.41849 12.0313 8.19335 12.8061C8.96829 13.581 9.7787 14.3099 10.6021 14.9725C11.1713 15.4305 11.991 15.3855 12.5089 14.8677L12.751 14.6255L19.6458 18.5605L18.5055 19.7008Z" fill="white"/>
</svg>
